# xmcd
#
# Track frame offsets: 
#        150
#        19152
#        36407
#        49917
#        60745
#        78545
#        99007
#        113555
#        124277
#        138085
#
# Disc length: 2074 seconds
#
# Revision: 3
# Processed by: cddbd v1.5PL3 Copyright (c) Steve Scherf et al.
# Submitted via: ExactAudioCopy v0.90b4
#
DISCID=7f08180a
DTITLE=Ronnie Milsap - Sings His Best Hits For Capitol Records
DYEAR=1996
DGENRE=Country
TTITLE0=Stranger In My House
TTITLE1=It Was Almost Like A Song
TTITLE2=Snap Your Fingers
TTITLE3=Daydreams About Night Things
TTITLE4=Smokey Mountain Rain
TTITLE5=Lost In The Fifties Tonight (In The Still Of The Night)
TTITLE6=(There's) No Gettin' Over Me
TTITLE7=Pure Love
TTITLE8=(I'm A) Stand By My Woman Man
TTITLE9=Button Off My Shirt
EXTD=YEAR: 1996 ID3G: 2
EXTT0=
EXTT1=
EXTT2=
EXTT3=
EXTT4=
EXTT5=(in the still of the night]\n
EXTT6=
EXTT7=
EXTT8=
EXTT9=
PLAYORDER=
